PathFileType	4	(X/Y/Z)	c:/Users/goper/Files/vsCode/490R/osim_files/A01/A01_PWS_03.trc
DataRate	CameraRate	NumFrames	NumMarkers	Units                	OrigDataRate	OrigDataStartFrame	OrigNumFrames
120.00	120.00	7	36	mm	120.0	876	1750
                Frame#	Time	Mobility_markerset:LPSIS			Mobility_markerset:LASIS			Mobility_markerset:LTH1			Mobility_markerset:LTH2			Mobility_markerset:LTH3			Mobility_markerset:LTH4			Mobility_markerset:LLFE			Mobility_markerset:LMFE			Mobility_markerset:LSH1			Mobility_markerset:LSH2			Mobility_markerset:LSH3			Mobility_markerset:LSH4			Mobility_markerset:LLMAL			Mobility_markerset:LMMAL			Mobility_markerset:LCAL			Mobility_markerset:LMTP5			Mobility_markerset:LTOE			Mobility_markerset:LMTP1			Mobility_markerset:RPSIS			Mobility_markerset:RASIS			Mobility_markerset:RTH1			Mobility_markerset:RTH2			Mobility_markerset:RTH3			Mobility_markerset:RTH4			Mobility_markerset:RLFE			Mobility_markerset:RMFE			Mobility_markerset:RSH1			Mobility_markerset:RSH2			Mobility_markerset:RSH3			Mobility_markerset:RSH4			Mobility_markerset:RLMAL			Mobility_markerset:RMMAL			Mobility_markerset:RCAL			Mobility_markerset:RMTP1			Mobility_markerset:RTOE			Mobility_markerset:RMTP5		
		X1	Y1	Z1	X2	Y2	Z2	X3	Y3	Z3	X4	Y4	Z4	X5	Y5	Z5	X6	Y6	Z6	X7	Y7	Z7	X8	Y8	Z8	X9	Y9	Z9	X10	Y10	Z10	X11	Y11	Z11	X12	Y12	Z12	X13	Y13	Z13	X14	Y14	Z14	X15	Y15	Z15	X16	Y16	Z16	X17	Y17	Z17	X18	Y18	Z18	X19	Y19	Z19	X20	Y20	Z20	X21	Y21	Z21	X22	Y22	Z22	X23	Y23	Z23	X24	Y24	Z24	X25	Y25	Z25	X26	Y26	Z26	X27	Y27	Z27	X28	Y28	Z28	X29	Y29	Z29	X30	Y30	Z30	X31	Y31	Z31	X32	Y32	Z32	X33	Y33	Z33	X34	Y34	Z34	X35	Y35	Z35	X36	Y36	Z36

876	7.29167	0.00000	0.00000	0.00000	-2720.40137	979.05414	393.57092	-2543.70898	668.25281	431.31909	-2542.18823	621.03735	423.86099	-2603.14551	659.57996	435.53607	-2593.73242	615.39807	423.82214	-2552.78101	497.28058	397.97128	-2568.28345	496.20407	260.29901	-2426.53320	386.36929	387.08646	-2399.89990	348.35574	390.85550	-2473.42456	345.95969	383.58084	-2439.40259	315.04248	385.43817	-2263.68115	138.29729	372.15009	-2252.34253	142.49373	283.94324	-2177.27075	147.53040	331.05240	-2366.57349	36.58920	384.10629	-2392.74585	55.56382	314.59601	0.00000	0.00000	0.00000	-2509.35229	1015.94031	166.85529	-2751.64600	975.37506	134.01178	-2715.62915	660.30920	45.19530	-2738.47974	623.01294	50.41834	-2773.16797	685.25616	45.34560	-2786.10840	644.65045	48.74877	-2829.32080	510.91119	93.64668	-2814.63818	517.97253	220.64520	-2792.48999	296.22513	84.61788	-2805.26147	252.92168	84.71059	-2852.21167	308.09369	84.78589	-2857.51050	263.30875	85.68787	-2862.92139	85.00982	117.93782	-2887.22559	111.50053	201.23958	-2817.59058	59.07649	170.68597	-3024.16479	68.90071	202.94839	-3053.56909	92.24332	155.98885	-3004.31738	49.01833	93.23111
877	7.30000	0.00000	0.00000	0.00000	-2732.21191	978.18597	391.17438	-2558.08789	666.88318	430.39679	-2556.95044	619.67841	423.18997	-2617.48608	658.74689	434.53729	-2608.34546	614.48645	423.08014	-2568.01343	495.39792	398.31329	-2582.92041	492.65152	261.44995	-2438.77783	388.06064	386.83923	-2411.44971	351.50510	391.27856	-2484.36816	346.85202	383.40414	-2449.24902	317.14655	385.20892	-2269.31323	143.68227	370.36475	-2258.74536	149.10216	283.04800	-2183.44971	156.96005	329.47592	-2367.12549	37.80618	384.12347	-2393.65356	55.85750	314.35175	0.00000	0.00000	0.00000	-2519.92407	1016.38800	166.05028	-2762.53784	976.34302	132.02281	-2724.78369	662.99677	43.58150	-2747.80225	625.58423	48.55717	-2782.80298	687.74390	42.07464	-2795.98438	646.97015	45.50170	-2841.51196	512.93066	92.77823	-2823.24805	520.50391	219.33833	-2799.26221	297.75305	82.89892	-2810.93506	254.25722	83.20969	-2859.90723	308.42737	83.74166	-2862.95654	263.25287	84.44180	-2865.01123	84.99083	117.16329	-2889.02222	110.89751	200.44008	-2818.57935	59.87128	170.18292	-3024.81836	65.17651	202.68472	-3055.63916	87.92034	156.22128	-3005.25293	45.86057	93.37552
878	7.30833	0.00000	0.00000	0.00000	-2743.57520	977.63470	388.80124	-2572.95923	665.72675	429.62494	-2572.33496	618.45190	422.72751	-2632.70142	658.22430	434.09836	-2624.01880	613.79657	422.86920	-2584.33740	493.59018	399.03046	-2600.07202	490.23947	262.24509	-2452.03271	390.01166	386.59732	-2423.43848	354.33075	390.86353	-2496.10425	347.27213	383.48865	-2460.23291	318.70139	385.10934	-2275.55591	150.37628	368.54373	-2265.95508	156.32465	281.81213	-2190.75293	167.21133	327.33289	-2367.89258	39.16029	383.94687	-2394.86304	56.31335	313.94089	0.00000	0.00000	0.00000	-2530.55640	1017.18353	165.59406	-2774.06470	977.92328	129.93492	-2735.28711	664.83472	42.29930	-2758.03442	627.75055	46.57203	-2792.90234	690.05011	39.72225	-2805.70264	649.23285	43.40747	-2853.28979	513.87280	92.47458	-2833.38013	523.74896	217.63928	-2805.18140	298.83780	81.39088	-2814.79321	255.26495	82.34411	-2864.65820	308.06927	83.09263	-2868.71826	263.50641	83.47865	-2866.37280	85.05936	116.71757	-2890.63354	110.48817	200.09328	-2819.33179	60.53504	169.70711	-3026.21631	62.72186	203.49802	-3056.65625	83.52749	156.90030	-3006.05713	43.31780	93.38120
879	7.31667	0.00000	0.00000	0.00000	-2754.71704	977.53516	386.43167	-2588.51001	664.47406	429.06604	-2588.52515	617.18768	422.41330	-2648.15186	657.89954	433.67664	-2640.07153	613.21155	422.64761	-2601.40479	491.81100	399.99463	-2619.68604	488.91464	262.58032	-2466.11108	392.26773	386.36353	-2435.97827	356.81152	389.51385	-2508.91748	348.39066	383.73877	-2472.25391	320.68173	385.14993	-2282.76099	157.47182	366.42178	-2274.39258	163.83640	280.33502	-2199.40405	178.22037	324.67499	-2368.77734	40.88012	383.65756	-2397.25610	56.87468	313.44077	0.00000	0.00000	0.00000	-2540.94116	1018.39459	165.32457	-2783.96533	979.37482	127.54309	-2745.77905	666.15540	39.93055	-2768.73462	629.28583	44.76012	-2803.16528	692.01019	38.09085	-2816.66089	651.19086	42.16120	-2863.98950	514.18079	92.44958	-2844.59277	527.25775	215.79222	-2810.16724	299.72348	80.06207	-2820.33008	255.66219	80.87630	-2869.93115	307.88223	82.11902	-2873.38208	263.24518	82.72043	-2867.84863	85.15840	116.31008	-2892.00488	110.24964	199.93112	-2819.90894	61.08575	169.35519	-3026.94067	60.51947	203.76006	-3058.18994	80.35057	157.34988	-3006.54712	41.98758	93.19033
880	7.32500	0.00000	0.00000	0.00000	-2765.73389	978.01520	384.16794	-2604.53467	663.33875	428.68365	-2605.36060	615.96051	422.32938	-2664.25830	657.73230	433.54208	-2656.97729	612.87787	422.72067	-2619.59302	490.02478	401.13116	-2641.09985	486.23712	264.47510	-2481.57422	394.45752	386.16968	-2450.53882	361.09128	389.81775	-2522.65601	349.37283	383.95935	-2485.11548	322.95367	384.89886	-2291.03003	164.84352	363.83310	-2283.98877	171.20525	278.34122	-2209.03589	189.88734	321.35699	-2370.04468	42.75013	382.91205	-2401.81641	56.47434	312.94702	0.00000	0.00000	0.00000	-2551.03564	1019.80908	165.24841	-2794.39307	981.58881	125.11346	-2756.16309	666.72949	37.54781	-2779.68848	630.18164	43.38222	-2813.33496	693.26105	36.80373	-2826.69189	652.48523	41.23032	-2873.23657	514.31158	92.18574	-2856.43066	530.15875	213.67830	-2814.73267	300.44699	79.24879	-2824.00928	256.22894	80.12316	-2875.78394	308.23941	81.11292	-2876.69336	262.73779	81.89061	-2868.75464	85.28313	116.07082	-2893.06909	110.03415	199.77155	-2820.34644	61.54714	169.11378	-3027.02002	58.58426	203.55437	-3058.99390	77.68716	157.54051	-3006.76074	40.71964	93.00765
881	7.33333	0.00000	0.00000	0.00000	-2776.30298	978.71924	381.80994	-2621.05151	662.07178	428.39642	-2622.94336	614.63336	422.38483	-2681.00195	657.74585	433.62778	-2674.74780	612.57770	423.11032	-2638.36719	488.11203	402.54507	0.00000	0.00000	0.00000	-2496.95898	397.34045	385.26657	-2465.30762	364.58020	388.98276	-2537.06372	350.50513	384.04578	-2498.68188	325.24240	384.61871	-2300.00610	172.25580	361.36761	-2294.40259	178.68980	275.64355	-2220.12109	201.76166	317.61014	-2371.67261	45.86817	382.17392	-2407.75513	53.94096	313.33588	-2384.59668	50.03714	282.62927	-2560.79541	1021.43329	165.14537	-2804.46240	984.29175	122.60403	-2766.26392	666.48077	34.24015	-2790.13721	630.32281	42.05370	-2823.01636	693.80176	35.40485	-2836.66602	653.04138	40.61267	-2881.05591	514.38953	91.38901	-2868.91089	532.15063	210.70071	-2818.53271	301.49380	78.82571	-2827.53784	256.98395	79.87260	-2879.80664	308.15527	80.23045	-2879.90381	262.57031	81.17515	-2869.42236	85.40566	115.90744	-2893.72876	109.57209	199.72031	-2820.74390	61.86311	168.95361	-3027.27295	57.07576	203.83781	-3059.60132	75.66634	157.63867	-3006.50024	39.89531	92.60382
882	7.34167	0.00000	0.00000	0.00000	-2786.81885	979.95776	379.29730	-2638.18481	660.61414	428.19669	-2641.39941	613.19495	422.53168	-2698.26099	657.85718	433.74042	-2693.03174	612.52869	423.40009	-2657.54712	486.20328	403.93445	0.00000	0.00000	0.00000	-2513.26636	399.88223	384.43729	-2479.68628	367.29437	386.11719	-2552.03638	351.75388	384.09030	-2512.45337	328.46420	384.48206	-2309.52808	179.94218	359.20270	-2305.68579	186.46683	272.63342	-2232.20459	213.81979	313.25208	-2373.65039	49.84458	381.13092	-2411.57544	54.58633	312.75644	-2388.52539	52.63415	281.59824	-2570.57129	1023.05298	165.03323	-2814.18433	987.40918	120.38107	-2775.54321	666.10205	32.01313	-2800.61499	629.92120	40.71310	-2832.06714	693.92194	33.94585	-2846.29248	653.98785	41.21820	-2888.23950	514.55322	90.16428	-2880.60522	532.56348	206.62012	-2821.40210	302.50763	78.32444	-2829.80591	257.95422	79.53579	-2883.36475	308.15695	79.44563	-2882.75537	262.53577	80.53304	-2870.05225	85.58557	115.80663	-2894.13843	109.38530	199.59486	-2820.87622	62.13633	168.64082	-3027.92261	56.08754	204.56403	-3060.08008	73.72844	157.97978	-3006.80713	39.13368	92.54568
